<svg xmlns="http://www.w3.org/2000/svg" width="1200" height="700" viewBox="0 0 1200 700">
<rect width="1200" height="700" fill="#5b4b3e"/>
<g opacity=".55">
<circle cx="100" cy="120" r="7" fill="#c8b8a5"/><circle cx="260" cy="90" r="4" fill="#2b211d"/><circle cx="430" cy="160" r="9" fill="#dbc8ad"/><circle cx="660" cy="80" r="5" fill="#1d1714"/><circle cx="830" cy="180" r="8" fill="#c1a98f"/><circle cx="1010" cy="120" r="5" fill="#2e2723"/>
<circle cx="160" cy="330" r="10" fill="#d7c4a8"/><circle cx="340" cy="380" r="5" fill="#211915"/><circle cx="520" cy="295" r="6" fill="#c7ad8b"/><circle cx="760" cy="360" r="11" fill="#e1cfb4"/><circle cx="940" cy="300" r="5" fill="#241b16"/><circle cx="1120" cy="380" r="8" fill="#bda58e"/>
<circle cx="90" cy="560" r="6" fill="#2d241f"/><circle cx="285" cy="590" r="8" fill="#d0bda4"/><circle cx="480" cy="535" r="5" fill="#2f2520"/><circle cx="710" cy="585" r="7" fill="#c8b49b"/><circle cx="900" cy="535" r="11" fill="#decbb0"/><circle cx="1085" cy="580" r="5" fill="#251d18"/>
</g>
<path d="M-50 510 C170 430 360 455 535 390 C720 322 850 278 1260 250" fill="none" stroke="#9b7b5f" stroke-width="44" opacity=".3"/>
<path d="M-20 190 C230 250 410 210 610 170 C780 135 980 145 1230 70" fill="none" stroke="#d6b98f" stroke-width="16" opacity=".35"/>
</svg>