<svg xmlns="http://www.w3.org/2000/svg" width="1200" height="700" viewBox="0 0 1200 700">
<rect width="1200" height="700" fill="#fafafa"/>
<path d="M-30 600 C150 470 310 410 505 335 C710 255 875 155 1240 -20" fill="none" stroke="#b8b8b8" stroke-width="18" opacity=".55"/>
<path d="M-20 625 C165 510 305 448 520 360 C705 285 900 180 1250 30" fill="none" stroke="#6d6d6d" stroke-width="5" opacity=".45"/>
<path d="M350 740 C470 540 570 420 715 312 C850 215 1002 150 1240 98" fill="none" stroke="#c7c7c7" stroke-width="10" opacity=".5"/>
<path d="M-50 180 C125 245 315 248 500 185 C670 128 840 125 1045 198 C1145 232 1200 230 1260 210" fill="none" stroke="#d0d0d0" stroke-width="10" opacity=".42"/>
</svg>